<svg xmlns="http://www.w3.org/2000/svg" viewBox="0 0 379 283"><title>api-access</title><circle cx="188" cy="153.9" r="129" style="fill:#f0f5f9"/><circle cx="21" cy="236.6" r="7.5" style="fill:#c7d9e5"/><circle cx="234.5" cy="7.5" r="7.5" style="fill:#c7d9e5"/><path d="M59.8,130.3h-13a2.48,2.48,0,0,1-2.5-2.5h0a2.48,2.48,0,0,1,2.5-2.5h13a2.48,2.48,0,0,1,2.5,2.5h0A2.48,2.48,0,0,1,59.8,130.3Z" transform="translate(-44.3 -29.3)" style="fill:#c7d9e5"/><path d="M420.8,179.8h-35a2.48,2.48,0,0,1-2.5-2.5h0a2.48,2.48,0,0,1,2.5-2.5h35a2.48,2.48,0,0,1,2.5,2.5h0A2.48,2.48,0,0,1,420.8,179.8Z" transform="translate(-44.3 -29.3)" style="fill:#c7d9e5"/><path d="M341.8,312.3h-13a2.48,2.48,0,0,1-2.5-2.5h0a2.48,2.48,0,0,1,2.5-2.5h13a2.48,2.48,0,0,1,2.5,2.5h0A2.48,2.48,0,0,1,341.8,312.3Z" transform="translate(-44.3 -29.3)" style="fill:#c7d9e5"/><path d="M386.8,312.3h-35a2.48,2.48,0,0,1-2.5-2.5h0a2.48,2.48,0,0,1,2.5-2.5h35a2.48,2.48,0,0,1,2.5,2.5h0A2.48,2.48,0,0,1,386.8,312.3Z" transform="translate(-44.3 -29.3)" style="fill:#c7d9e5"/><polygon points="78.6 60.6 73.2 56.3 89.8 35.3 106.1 56.3 100.7 60.6 89.8 46.9 78.6 60.6" style="fill:#c8d2fc"/><rect x="86.2" y="41.1" width="7.2" height="111.6" style="fill:#c8d2fc"/><polygon points="286.9 270.8 270.6 249.7 276.1 245.4 286.9 259.2 298.2 245.4 303.6 249.7 286.9 270.8" style="fill:#c8d2fc"/><rect x="283.3" y="153.4" width="7.2" height="111.6" style="fill:#c8d2fc"/><polygon points="285.1 70.8 280.8 65.3 294.5 54.5 280.8 43.2 285.1 37.8 306.1 54.5 285.1 70.8" style="fill:#c8d2fc"/><rect x="188.7" y="50.8" width="111.6" height="7.2" style="fill:#c8d2fc"/><polygon points="91.6 268.2 70.6 251.5 91.6 234.9 96 240.7 82.2 251.5 96 262.8 91.6 268.2" style="fill:#c8d2fc"/><rect x="76.4" y="247.9" width="111.6" height="7.2" style="fill:#c8d2fc"/><circle cx="188.4" cy="152.6" r="98.5" style="fill:#4b88e5"/><path d="M232.7,284.1a102.2,102.2,0,0,1,0-204.4c56.2,0,102.2,46,102.2,102.2A102.32,102.32,0,0,1,232.7,284.1Zm0-197.4c-52.5,0-94.9,42.8-94.9,95.3a94.9,94.9,0,1,0,189.8,0C327.6,129.9,285.2,86.7,232.7,86.7Z" transform="translate(-44.3 -29.3)" style="fill:#c8d2fc"/><path d="M232.7,266a84.4,84.4,0,1,1,84.4-84.4A84.48,84.48,0,0,1,232.7,266Z" transform="translate(-44.3 -29.3)" style="fill:#fff"/><polygon points="188.4 152.6 160.5 136.3 160.5 104.5 188.4 88.2 216.3 104.5 216.3 136.3 188.4 152.6" style="fill:#fff"/><path d="M232.7,185.6a3,3,0,0,1-1.8-.4L203,169.3a3.74,3.74,0,0,1-1.8-3.3V133.8a4,4,0,0,1,1.8-3.3l27.9-15.9a3.35,3.35,0,0,1,3.6,0l27.9,15.9a3.74,3.74,0,0,1,1.8,3.3V166a4,4,0,0,1-1.8,3.3l-27.9,15.6C233.8,185.2,233.4,185.6,232.7,185.6Zm-24.3-21.8,24.3,14.1L257,163.8V135.9l-24.3-14.1-24.3,14.1Z" transform="translate(-44.3 -29.3)" style="fill:#c8d2fc"/><polygon points="173.2 129.1 173.2 111.7 188.4 102.6 203.6 111.7 203.6 129.1 188.4 138.2 173.2 129.1" style="fill:#4b88e5"/><polygon points="216.3 200.8 188.4 184.9 188.4 152.6 216.3 136.3 244.2 152.6 244.2 184.9 216.3 200.8" style="fill:#fff"/><path d="M260.6,233.8a3,3,0,0,1-1.8-.4l-27.9-16.3a3.74,3.74,0,0,1-1.8-3.3V181.6a4,4,0,0,1,1.8-3.3l27.9-15.9a3.35,3.35,0,0,1,3.6,0l27.9,15.9a3.74,3.74,0,0,1,1.8,3.3v32.2a4,4,0,0,1-1.8,3.3L262.4,233A1.88,1.88,0,0,1,260.6,233.8ZM236.3,212l24.3,14.1L284.9,212V184.1L260.6,170l-24.3,14.1Z" transform="translate(-44.3 -29.3)" style="fill:#c8d2fc"/><polygon points="201.1 177.6 201.1 159.9 216.3 151.2 231.5 159.9 231.5 177.6 216.3 186.3 201.1 177.6" style="fill:#4b88e5"/><polygon points="160.5 200.8 132.6 184.9 132.6 152.6 160.5 136.3 188.4 152.6 188.4 184.9 160.5 200.8" style="fill:#fff"/><path d="M204.8,233.8a3,3,0,0,1-1.8-.4l-27.9-15.9a3.74,3.74,0,0,1-1.8-3.3V182a4,4,0,0,1,1.8-3.3L203,162.8a3.35,3.35,0,0,1,3.6,0l27.9,15.9a3.74,3.74,0,0,1,1.8,3.3v32.2a4,4,0,0,1-1.8,3.3l-27.9,15.9A3,3,0,0,1,204.8,233.8ZM180.5,212l24.3,14.1L229.1,212V184.1L204.8,170l-24.3,14.1V212Z" transform="translate(-44.3 -29.3)" style="fill:#c8d2fc"/><polygon points="145.3 177.6 145.3 159.9 160.5 151.2 175.7 159.9 175.7 177.6 160.5 186.3 145.3 177.6" style="fill:#4b88e5"/><rect x="179.89" y="142.88" width="7.2" height="7.2" transform="translate(-80.22 200.76) rotate(-59.45)" style="fill:#4a4a49"/><rect x="227.35" y="226.98" width="7.2" height="7.2" transform="translate(-46.13 430.01) rotate(-89.45)" style="fill:#4a4a49"/><rect x="276.61" y="143.91" width="7.2" height="7.2" transform="translate(-80.62 127.54) rotate(-29.45)" style="fill:#4a4a49"/></svg>