<svg xmlns="http://www.w3.org/2000/svg" viewBox="0 0 365 260.5"><title>api-access-user</title><circle cx="182.5" cy="131.5" r="129" style="fill:#f0f5f9"/><circle cx="7.5" cy="153" r="7.5" style="fill:#c7d9e5"/><circle cx="357.5" cy="99.8" r="7.5" style="fill:#c7d9e5"/><path d="M91.8,83.5h-13A2.48,2.48,0,0,1,76.3,81h0a2.48,2.48,0,0,1,2.5-2.5h13A2.48,2.48,0,0,1,94.3,81h0A2.48,2.48,0,0,1,91.8,83.5Z" transform="translate(-49.8 -51.7)" style="fill:#c7d9e5"/><path d="M378.8,56.7h-35a2.48,2.48,0,0,1-2.5-2.5h0a2.48,2.48,0,0,1,2.5-2.5h35a2.48,2.48,0,0,1,2.5,2.5h0A2.48,2.48,0,0,1,378.8,56.7Z" transform="translate(-49.8 -51.7)" style="fill:#c7d9e5"/><path d="M367.3,278.4h-13a2.48,2.48,0,0,1-2.5-2.5h0a2.48,2.48,0,0,1,2.5-2.5h13a2.48,2.48,0,0,1,2.5,2.5h0A2.48,2.48,0,0,1,367.3,278.4Z" transform="translate(-49.8 -51.7)" style="fill:#c7d9e5"/><path d="M412.3,278.4h-35a2.48,2.48,0,0,1-2.5-2.5h0a2.48,2.48,0,0,1,2.5-2.5h35a2.48,2.48,0,0,1,2.5,2.5h0A2.48,2.48,0,0,1,412.3,278.4Z" transform="translate(-49.8 -51.7)" style="fill:#c7d9e5"/><path d="M202.9,273.7l-22.7-22.6a5.37,5.37,0,0,1,0-7.6l45.3-45.2a5.25,5.25,0,0,1,7.5,0l22.6,22.6a5.37,5.37,0,0,1,0,7.6l-15.1,15a5.25,5.25,0,0,1-7.5,0l-3.7-3.7-7.6,7.5,3.8,3.8a5.25,5.25,0,0,1,0,7.5l-15,15A5.29,5.29,0,0,1,202.9,273.7Z" transform="translate(-49.8 -51.7)" style="fill:#4379c9"/><path d="M265.9,165.7l-7.5-7.5-7.6-7.6a5.25,5.25,0,0,0-7.5,0L157.6,236c-7.5,7.5-5.5,16.8.1,22.5s15,7.7,22.6.1l85.6-85.5A5.13,5.13,0,0,0,265.9,165.7Z" transform="translate(-49.8 -51.7)" style="fill:#dae1f7"/><path d="M313.1,122.5l-9.5-9.6-9.5-9.5a34.46,34.46,0,0,0-48.8,0c-3,3-5.5,5.2-7.8,8.4a34.32,34.32,0,0,0,3.8,44.2l9.6,9.6,9.5,9.5a34.48,34.48,0,0,0,24.3,10.1C314.5,185.3,337.3,146.4,313.1,122.5Zm-22.7,33.8c-3.1,3.1-10.1,1.2-13.1-1.9l-17.1-17.1c-7.9-7.9,7.6-22.6,15-15l9.5,9.5,9.6,9.5C299.9,146.9,295.3,151.4,290.4,156.3Z" transform="translate(-49.8 -51.7)" style="fill:#c8d2fc"/><path d="M152.9,150.6c-24.9,24.9,12.8,62.6,37.7,37.7l7.5-7.5L190.6,168l-23.2-23.2-7-1.7Z" transform="translate(-49.8 -51.7)" style="fill:#c8d2fc"/><path d="M213.2,143.1,198.1,128a16.44,16.44,0,0,0-22.6,0l-15.1,15.1,37.7,37.7,15.1-15.1A16.06,16.06,0,0,0,213.2,143.1Z" transform="translate(-49.8 -51.7)" style="fill:#4379c9"/><path d="M265.9,173.2l-85.6,85.5c-7.6,7.6-17,5.5-22.6-.1L258.4,158.3l7.5,7.5A5.13,5.13,0,0,1,265.9,173.2Z" transform="translate(-49.8 -51.7)" style="fill:#4b88e5"/><path d="M284.8,185.3a34.48,34.48,0,0,1-24.3-10.1l-9.5-9.5,18.8-18.9,7.6,7.6c3,3.1,10,5,13.1,1.9,4.9-4.9,9.5-9.4,3.9-15l-9.6-9.5,18.9-18.9,9.5,9.6C337.3,146.4,314.5,185.3,284.8,185.3Z" transform="translate(-49.8 -51.7)" style="fill:#4b88e5"/><path d="M190.6,143.1l22.6-22.6a37.39,37.39,0,0,1,52.8,0c5,5-2.5,12.5-7.5,7.5a26.68,26.68,0,0,0-37.7,0l-22.6,22.6C193.1,155.6,185.5,148.1,190.6,143.1Z" transform="translate(-49.8 -51.7)" style="fill:#4b88e5"/></svg>