<svg xmlns="http://www.w3.org/2000/svg" viewBox="0 0 374 260.5"><title>api-auto</title><circle cx="191.5" cy="131.5" r="129" style="fill:#f0f5f9"/><circle cx="16.5" cy="153" r="7.5" style="fill:#c7d9e5"/><circle cx="366.5" cy="99.8" r="7.5" style="fill:#c7d9e5"/><path d="M91.8,83.5h-13A2.48,2.48,0,0,1,76.3,81h0a2.48,2.48,0,0,1,2.5-2.5h13A2.48,2.48,0,0,1,94.3,81h0A2.48,2.48,0,0,1,91.8,83.5Z" transform="translate(-40.8 -51.7)" style="fill:#c7d9e5"/><path d="M378.8,56.7h-35a2.48,2.48,0,0,1-2.5-2.5h0a2.48,2.48,0,0,1,2.5-2.5h35a2.48,2.48,0,0,1,2.5,2.5h0A2.48,2.48,0,0,1,378.8,56.7Z" transform="translate(-40.8 -51.7)" style="fill:#c7d9e5"/><path d="M56.3,288h-13a2.48,2.48,0,0,1-2.5-2.5h0a2.48,2.48,0,0,1,2.5-2.5h13a2.48,2.48,0,0,1,2.5,2.5h0A2.48,2.48,0,0,1,56.3,288Z" transform="translate(-40.8 -51.7)" style="fill:#c7d9e5"/><path d="M412.3,278.4h-35a2.48,2.48,0,0,1-2.5-2.5h0a2.48,2.48,0,0,1,2.5-2.5h35a2.48,2.48,0,0,1,2.5,2.5h0A2.48,2.48,0,0,1,412.3,278.4Z" transform="translate(-40.8 -51.7)" style="fill:#c7d9e5"/><path d="M302.6,140.6l9-2.9h7.1a4.23,4.23,0,0,0,4.2-4.2h0a4.23,4.23,0,0,0-4.2-4.2h-7.1l-9-2.9h-9.4V117l-2.9-9v-7.1a4.23,4.23,0,0,0-4.2-4.2h0a4.23,4.23,0,0,0-4.2,4.2V108l-2.9,9v9.4H258.7V117l-2.9-9v-7.1a4.23,4.23,0,0,0-4.2-4.2h0a4.23,4.23,0,0,0-4.2,4.2V108l-2.9,9v9.4H224.2V117l-2.9-9v-7.1a4.23,4.23,0,0,0-4.2-4.2h0a4.23,4.23,0,0,0-4.2,4.2V108l-2.9,9v9.4H189.7V117l-2.9-9v-7.1a4.23,4.23,0,0,0-4.2-4.2h0a4.23,4.23,0,0,0-4.2,4.2V108l-2.9,9v9.4h-9.4l-9,2.9H150a4.23,4.23,0,0,0-4.2,4.2h0a4.23,4.23,0,0,0,4.2,4.2h7.1l9,2.9h9.4V161h-9.4l-9,2.9H150a4.23,4.23,0,0,0-4.2,4.2h0a4.23,4.23,0,0,0,4.2,4.2h7.1l9,2.9h9.4v20.3h-9.4l-9,2.9H150a4.23,4.23,0,0,0-4.2,4.2h0a4.23,4.23,0,0,0,4.2,4.2h7.1l9,2.9h9.4V230h-9.4l-9,2.9H150a4.23,4.23,0,0,0-4.2,4.2h0a4.23,4.23,0,0,0,4.2,4.2h7.1l9,2.9h9.4v9.4l2.9,9v7.1a4.23,4.23,0,0,0,4.2,4.2h0a4.23,4.23,0,0,0,4.2-4.2v-7.1l2.9-9v-9.4H210v9.4l2.9,9v7.1a4.23,4.23,0,0,0,4.2,4.2h0a4.23,4.23,0,0,0,4.2-4.2v-7.1l2.9-9v-9.4h20.3v9.4l2.9,9v7.1a4.23,4.23,0,0,0,4.2,4.2h0a4.23,4.23,0,0,0,4.2-4.2v-7.1l2.9-9v-9.4H279v9.4l2.9,9v7.1a4.23,4.23,0,0,0,4.2,4.2h0a4.23,4.23,0,0,0,4.2-4.2v-7.1l2.9-9v-9.4h9.4l9-2.9h7.1a4.23,4.23,0,0,0,4.2-4.2h0a4.23,4.23,0,0,0-4.2-4.2h-7.1l-9-2.9h-9.4V209.7h9.4l9-2.9h7.1a4.23,4.23,0,0,0,4.2-4.2h0a4.23,4.23,0,0,0-4.2-4.2h-7.1l-9-2.9h-9.4V175.2h9.4l9-2.9h7.1a4.23,4.23,0,0,0,4.2-4.2h0a4.23,4.23,0,0,0-4.2-4.2h-7.1l-9-2.9h-9.4V140.7l9.4-.1Zm-58.1,0V161H224.2V140.7C224.1,140.6,244.5,140.6,244.5,140.6Zm0,34.5v20.3H224.2V175.1Zm-54.9-34.5H210V161H189.7C189.6,161,189.6,140.6,189.6,140.6Zm0,34.5H210v20.3H189.7C189.6,195.5,189.6,175.1,189.6,175.1Zm0,54.9V209.7H210V230Zm34.5,0V209.7h20.3V230Zm54.9,0H258.7V209.7H279Zm0-34.5H258.7V175.2H279Zm0-34.5H258.7V140.7H279Z" transform="translate(-40.8 -51.7)" style="fill:#c8d2fc"/><path d="M298,256.1H170.6a7.13,7.13,0,0,1-7.1-7.1V121.6a7.13,7.13,0,0,1,7.1-7.1H298a7.13,7.13,0,0,1,7.1,7.1V249A7.13,7.13,0,0,1,298,256.1Z" transform="translate(-40.8 -51.7)" style="fill:#4b88e5"/><path d="M173.6,120H295a4.69,4.69,0,0,1,4.7,4.7V246a4.69,4.69,0,0,1-4.7,4.7H173.6a4.69,4.69,0,0,1-4.7-4.7V124.6A4.74,4.74,0,0,1,173.6,120Z" transform="translate(-40.8 -51.7)" style="fill:#fff"/><circle cx="193.5" cy="133.6" r="49.6" style="fill:#c8d2fc"/><circle cx="193.5" cy="133.6" r="44.5" style="fill:#4b88e5"/><circle cx="193.5" cy="133.6" r="39.7" style="fill:#f0f5f9"/><path d="M244.7,185.3a10.61,10.61,0,0,0,5.4-8.9c0-6.2-6.2-11.3-13.7-11.3h-1.5v-4.7H232v4.7h-3.3v-4.7h-2.8v4.7h-6.4v4.7h3.6V183h-3.6v4.7h3.6v13.2h-3.6v4.7h6.4v4.7h2.8v-4.7H232v4.7h2.8v-4.7h1.5c7.6,0,13.7-5.1,13.7-11.3A10.33,10.33,0,0,0,244.7,185.3Zm-8.3,15.6h-7.7V187.7h7.7c4.4,0,8.1,3,8.1,6.6S240.8,200.9,236.4,200.9Zm0-17.9h-7.7V169.8h7.7c4.4,0,8.1,3,8.1,6.6S240.8,183,236.4,183Z" transform="translate(-40.8 -51.7)" style="fill:#4b88e5"/></svg>