<svg xmlns="http://www.w3.org/2000/svg" viewBox="0 0 402.6 268.5"><title>api-oauth</title><circle cx="208.5" cy="139.5" r="129" style="fill:#f0f5f9"/><path d="M246.5,208.1V192.7a11,11,0,0,0-22,0v13.9a67.82,67.82,0,0,1-17.3,45.2L191.8,269a3.54,3.54,0,0,0,5.3,4.7l15.4-17.1a74.55,74.55,0,0,0,19.1-49.9V192.8a4,4,0,0,1,8,0v15.4a82,82,0,0,1-21.5,55.5l-15,16.5a3.54,3.54,0,0,0,5.2,4.8l15-16.5A90,90,0,0,0,246.5,208.1Z" transform="translate(-23.8 -43.7)" style="fill:#4b88e5"/><path d="M261.5,192.8a25.9,25.9,0,0,0-51.8,0v13.9a52.66,52.66,0,0,1-13.5,35.2l-11,12.2a3.54,3.54,0,0,0,5.3,4.7l11-12.2a59.39,59.39,0,0,0,15.3-39.9V192.8a18.9,18.9,0,0,1,37.8,0v15.4a97.18,97.18,0,0,1-25.4,65.6l-12.7,14a3.54,3.54,0,0,0,5.2,4.8l12.7-14a104.4,104.4,0,0,0,27.2-70.3V192.8Z" transform="translate(-23.8 -43.7)" style="fill:#4b88e5"/><path d="M276.5,192.8a40.9,40.9,0,1,0-81.8,0v13.9a37.32,37.32,0,0,1-9.7,25.2l-9.9,11a3.54,3.54,0,1,0,5.3,4.7l9.9-11a44.53,44.53,0,0,0,11.5-29.9V192.8a33.9,33.9,0,1,1,67.8,0v15.4a112.34,112.34,0,0,1-29.2,75.6l-3.5,3.9a3.54,3.54,0,0,0,5.2,4.8l3.5-3.9a119.42,119.42,0,0,0,31.1-80.4l-.2-15.4Z" transform="translate(-23.8 -43.7)" style="fill:#4b88e5"/><path d="M179.7,192.8a3.5,3.5,0,0,0,7,0,48.91,48.91,0,0,1,41.9-48.3,3.54,3.54,0,1,0-1-7,56,56,0,0,0-47.9,55.3Z" transform="translate(-23.8 -43.7)" style="fill:#4b88e5"/><path d="M186.7,206.6a3.5,3.5,0,0,0-7,0,23,23,0,0,1-5.8,15.2l-8.8,9.8a3.55,3.55,0,0,0,2.6,5.9,3.37,3.37,0,0,0,2.6-1.2l8.8-9.8A29.77,29.77,0,0,0,186.7,206.6Z" transform="translate(-23.8 -43.7)" style="fill:#4b88e5"/><path d="M284.5,237.9a3.49,3.49,0,0,0-4.3,2.5,124.61,124.61,0,0,1-4.8,14.6,3.62,3.62,0,0,0,2,4.6,3,3,0,0,0,1.3.2,3.56,3.56,0,0,0,3.3-2.2,138.82,138.82,0,0,0,5.1-15.4A3.63,3.63,0,0,0,284.5,237.9Z" transform="translate(-23.8 -43.7)" style="fill:#4b88e5"/><path d="M272.9,150.7a3.7,3.7,0,0,0-5,.3,3.16,3.16,0,0,0,.3,4.7,46.13,46.13,0,0,1,16.2,34.8v14.7a116.21,116.21,0,0,1-1.2,16.7,3.44,3.44,0,0,0,3,3.8h.5a3.54,3.54,0,0,0,3.5-2.9,129.09,129.09,0,0,0,1.3-17.6V190.5A53.13,53.13,0,0,0,272.9,150.7Z" transform="translate(-23.8 -43.7)" style="fill:#4b88e5"/><path d="M256.5,148.6a4,4,0,0,0,1.5.3,3.5,3.5,0,0,0,3.2-2,3.57,3.57,0,0,0-1.7-4.7,55.81,55.81,0,0,0-16-4.8,3.54,3.54,0,1,0-1,7A48.24,48.24,0,0,1,256.5,148.6Z" transform="translate(-23.8 -43.7)" style="fill:#4b88e5"/><path d="M235.6,121.9c-1.3,0-2.6,0-3.9.1a3.51,3.51,0,0,0,.4,7c1.2-.1,2.4-.1,3.6-.1a63.85,63.85,0,0,1,63.8,63.8v15.4a3.5,3.5,0,0,0,7,0V192.7A71.08,71.08,0,0,0,235.6,121.9Z" transform="translate(-23.8 -43.7)" style="fill:#4b88e5"/><path d="M197.2,141a3.61,3.61,0,0,0,2-.6,61.43,61.43,0,0,1,19-9,3.48,3.48,0,0,0-1.9-6.7,68.25,68.25,0,0,0-21.1,10,3.53,3.53,0,0,0-.9,4.9A4,4,0,0,0,197.2,141Z" transform="translate(-23.8 -43.7)" style="fill:#4b88e5"/><path d="M171.7,206.6V192.7A63.54,63.54,0,0,1,189.1,149a3.59,3.59,0,0,0-.1-5,3.5,3.5,0,0,0-5,.1,70.68,70.68,0,0,0-19.3,48.6v13.9a7.88,7.88,0,0,1-2,5.2l-4.3,4.8a3.55,3.55,0,0,0,2.6,5.9,3.37,3.37,0,0,0,2.6-1.2l4.3-4.8A14.43,14.43,0,0,0,171.7,206.6Z" transform="translate(-23.8 -43.7)" style="fill:#4b88e5"/><path d="M316.9,165.5a84.86,84.86,0,0,0-18.2-30.7,3.54,3.54,0,0,0-5.2,4.8,78.47,78.47,0,0,1,16.7,28.2,3.51,3.51,0,0,0,3.3,2.4,4.25,4.25,0,0,0,1.1-.2A3.63,3.63,0,0,0,316.9,165.5Z" transform="translate(-23.8 -43.7)" style="fill:#4b88e5"/><path d="M263.3,111.6a3.58,3.58,0,0,0-4.5,2.2,3.66,3.66,0,0,0,2.2,4.5,78.53,78.53,0,0,1,21.6,11.4,3.32,3.32,0,0,0,2.1.7,3.5,3.5,0,0,0,2.1-6.3A80.68,80.68,0,0,0,263.3,111.6Z" transform="translate(-23.8 -43.7)" style="fill:#4b88e5"/><path d="M181.1,135.9A78.64,78.64,0,0,1,235.6,114a84.66,84.66,0,0,1,11.3.8,3.54,3.54,0,0,0,1-7,85.93,85.93,0,0,0-98,81,3.55,3.55,0,0,0,3.3,3.7h.2a3.51,3.51,0,0,0,3.5-3.3A78.33,78.33,0,0,1,181.1,135.9Z" transform="translate(-23.8 -43.7)" style="fill:#4b88e5"/><path d="M235.6,92a100.11,100.11,0,0,0-23.2,2.7,3.49,3.49,0,1,0,1.6,6.8A91.78,91.78,0,0,1,235.6,99a93,93,0,0,1,67.6,28.8,3.58,3.58,0,0,0,2.5,1.1,3.25,3.25,0,0,0,2.4-1,3.59,3.59,0,0,0,.1-5,100.89,100.89,0,0,0-32.5-22.7A102,102,0,0,0,235.6,92Z" transform="translate(-23.8 -43.7)" style="fill:#4b88e5"/><path d="M156.8,135.7a3.41,3.41,0,0,0,2.2.7,3.89,3.89,0,0,0,2.8-1.3,94.89,94.89,0,0,1,38-29,3.52,3.52,0,0,0-2.7-6.5,101.66,101.66,0,0,0-40.9,31.1A3.61,3.61,0,0,0,156.8,135.7Z" transform="translate(-23.8 -43.7)" style="fill:#4b88e5"/><path d="M186.9,95.2a4,4,0,0,0,1.5-.3,109,109,0,0,1,72.5-7.7,3.4,3.4,0,0,0,4.2-2.6,3.48,3.48,0,0,0-2.6-4.2,116.8,116.8,0,0,0-27.1-3.2,114.57,114.57,0,0,0-50.2,11.4,3.47,3.47,0,0,0-1.6,4.7A4.24,4.24,0,0,0,186.9,95.2Z" transform="translate(-23.8 -43.7)" style="fill:#4b88e5"/><path d="M275.6,91.7a101.77,101.77,0,0,1,10.6,4.9,3.17,3.17,0,0,0,1.6.4,3.5,3.5,0,0,0,1.6-6.6c-3.7-1.9-7.5-3.7-11.3-5.2a3.62,3.62,0,0,0-4.6,2A3.7,3.7,0,0,0,275.6,91.7Z" transform="translate(-23.8 -43.7)" style="fill:#4b88e5"/><ellipse cx="211.7" cy="149.6" rx="63.9" ry="64.5" style="fill:#f0f5f9"/><rect x="138.6" y="107.7" width="144.8" height="89.7" style="fill:none"/><g style="isolation:isolate"><text transform="translate(189.59 154.19)" style="isolation:isolate;font-size:65.45850372314453px;fill:#4a4a49;font-family:Rubik-Bold, Rubik;font-weight:700">2</text><text transform="translate(177.29 183.19)" style="isolation:isolate;font-size:21.040199279785156px;fill:#4a4a49;font-family:Rubik-Bold, Rubik;font-weight:700"><tspan style="letter-spacing:-0.014991763305353107em">O</tspan><tspan x="14.73" y="0" style="letter-spacing:-0.005987422496565174em">A</tspan><tspan x="29.75" y="0">uth</tspan></text></g><circle cx="71.1" cy="261" r="7.5" style="fill:#c7d9e5"/><circle cx="158.5" cy="7.5" r="7.5" style="fill:#c7d9e5"/><path d="M39.3,102.5h-13a2.48,2.48,0,0,1-2.5-2.5h0a2.48,2.48,0,0,1,2.5-2.5h13a2.48,2.48,0,0,1,2.5,2.5h0A2.48,2.48,0,0,1,39.3,102.5Z" transform="translate(-23.8 -43.7)" style="fill:#c7d9e5"/><path d="M378.8,56.7h-35a2.48,2.48,0,0,1-2.5-2.5h0a2.48,2.48,0,0,1,2.5-2.5h35a2.48,2.48,0,0,1,2.5,2.5h0A2.48,2.48,0,0,1,378.8,56.7Z" transform="translate(-23.8 -43.7)" style="fill:#c7d9e5"/><path d="M367.3,278.4h-13a2.48,2.48,0,0,1-2.5-2.5h0a2.48,2.48,0,0,1,2.5-2.5h13a2.48,2.48,0,0,1,2.5,2.5h0A2.48,2.48,0,0,1,367.3,278.4Z" transform="translate(-23.8 -43.7)" style="fill:#c7d9e5"/><path d="M412.3,278.4h-35a2.48,2.48,0,0,1-2.5-2.5h0a2.48,2.48,0,0,1,2.5-2.5h35a2.48,2.48,0,0,1,2.5,2.5h0A2.48,2.48,0,0,1,412.3,278.4Z" transform="translate(-23.8 -43.7)" style="fill:#c7d9e5"/><path d="M72.5,171.9H92.8a2.9,2.9,0,1,0,0-5.8H72.5a2.9,2.9,0,1,0,0,5.8Z" transform="translate(-23.8 -43.7)" style="fill:#4b88e5"/><path d="M86.1,177.5a2.9,2.9,0,0,0,2.9,2.9h13.1a2.9,2.9,0,1,0,0-5.8H89A2.9,2.9,0,0,0,86.1,177.5Z" transform="translate(-23.8 -43.7)" style="fill:#4b88e5"/><path d="M117.1,71.1h9.4a2.9,2.9,0,0,0,0-5.8h-9.4a2.9,2.9,0,1,0,0,5.8Z" transform="translate(-23.8 -43.7)" style="fill:#4b88e5"/><path d="M324.3,199.5a17.38,17.38,0,0,0-1.5-1.3c.2.5.6.9.8,1.4A1.48,1.48,0,0,1,324.3,199.5Z" transform="translate(-23.8 -43.7)" style="fill:none"/><path d="M350.5,223.5a25.24,25.24,0,0,1,7.4,2,21.36,21.36,0,0,0-9.5-11.8,23.22,23.22,0,0,1,2,9.6C350.5,223.3,350.5,223.5,350.5,223.5Z" transform="translate(-23.8 -43.7)" style="fill:none"/><path d="M355.6,189.2h21.2a2.9,2.9,0,1,0,0-5.8H355.6a2.9,2.9,0,0,0-2.9,2.9A3,3,0,0,0,355.6,189.2Z" transform="translate(-23.8 -43.7)" style="fill:#4b88e5"/><path d="M370.1,194.8a2.9,2.9,0,0,0,2.9,2.9h21.2a2.9,2.9,0,1,0,0-5.8H373A2.84,2.84,0,0,0,370.1,194.8Z" transform="translate(-23.8 -43.7)" style="fill:#4b88e5"/><path d="M414.1,265.8h9.4a2.9,2.9,0,0,0,0-5.8h-9.4a2.9,2.9,0,0,0,0,5.8Z" transform="translate(-23.8 -43.7)" style="fill:#4b88e5"/></svg>