<svg xmlns="http://www.w3.org/2000/svg" viewBox="0 0 183.87 233.57"><title>BTC-alt</title><path d="M170.55,143.32c-5.17-7.54-14.32-12.94-14.32-12.94s10-2,15-5.71,9.26-10.6,10.86-14.39,7.74-19.86-1.8-33.52c-7.38-10.56-17.67-17.23-32.47-23.26l11.07-32.89-20.28-6.82-10.94,32.5-15.45-5.2,10.94-32.5L102.89,1.77,92,34.27,52.06,20.84,45,41.9,56.7,45.85c3.2,1.08,8.76,3.34,10.27,6.86s1.46,5.08-.31,10.34L38.41,147c-.67,2-1.88,4.32-4.13,5.36s-4.08.84-8.15-.53L14,147.7l-12.37,23,39.89,13.43L30.63,216.49l20.28,6.82,10.91-32.41,15.45,5.2L66.35,228.51l20.28,6.82,11.09-32.94c5.35,1.46,10.37,2.71,13.34,3.29,6,1.19,19.62,4.07,34.72-.34s22.34-16.85,27.15-30.21,2.79-24.28-2.37-31.81ZM104.51,64s6.63,1.6,13,3.83,11.84,4.3,19.32,9.67,10.29,13.28,8,20.73-7.18,11.3-13.92,12.51-15.17.27-22.66-1.93-16.87-5.68-16.87-5.68Zm12.77,112.21c-5.5,1-15.56.15-24.78-2.22s-22.59-7.18-22.59-7.18l14.64-43.5s13.11,3.68,22.93,7.72,17.39,9.44,20.54,12.61,8.39,9.57,5,19.52S122.78,175.24,117.28,176.24Z" transform="translate(-1.64 -1.77)" style="fill:#eef0f1"/></svg>