<?xml version="1.0" encoding="UTF-8"?>
<svg width="8px" height="8px" viewBox="0 0 8 8" version="1.1" xmlns="http://www.w3.org/2000/svg" xmlns:xlink="http://www.w3.org/1999/xlink">
    <g id="Page-1" stroke="none" stroke-width="1" fill="none" fill-rule="evenodd">
        <g id="close" transform="translate(-1.000000, -1.000000)" fill-rule="nonzero" fill="#FFFFFF">
            <path d="M6.22587502,4.8115 L8.347,2.69 C8.73738194,2.29950015 8.73738194,1.66649985 8.347,1.276 C7.95650015,0.885618062 7.32349985,0.885618062 6.933,1.276 L4.81181252,3.39718748 L2.691,1.276 C2.50343174,1.08822296 2.24890925,0.982713344 1.9835,0.982713344 C1.71809075,0.982713344 1.46356826,1.08822296 1.276,1.276 C0.885618062,1.66649985 0.885618062,2.29950015 1.276,2.69 L3.3975,4.8115 L1.276,6.933 C0.885534778,7.32374148 0.885758681,7.95703462 1.2765001,8.3474999 C1.66724152,8.73796518 2.30053467,8.73774136 2.691,8.347 L4.81181252,6.22581252 L6.933,8.347 C7.32537889,8.72597221 7.94908478,8.72055237 8.33481858,8.33481858 C8.72055237,7.94908478 8.72597221,7.32537889 8.347,6.933 L6.22587502,4.8115 Z" id="Rounded_Rectangle_3_copy"></path>
        </g>
    </g>
</svg>