<svg xmlns="http://www.w3.org/2000/svg" viewBox="0 0 417.5 258"><title>corporate-interface</title><circle cx="211.5" cy="129" r="129" style="fill:#f0f5f9"/><path d="M339.5,253.8h-225a9.09,9.09,0,0,1-9-9V98.8a9.09,9.09,0,0,1,9-9h225a9,9,0,0,1,9,9v146A9,9,0,0,1,339.5,253.8Z" transform="translate(-15.5 -42.8)" style="fill:#fff;stroke:#4b88e5;stroke-miterlimit:10;stroke-width:5px"/><circle cx="114.5" cy="68.2" r="7.5" style="fill:#fff;stroke:#4b88e5;stroke-miterlimit:10;stroke-width:5px"/><circle cx="55.5" cy="56.7" r="7.5" style="fill:#c7d9e5"/><circle cx="410" cy="235.2" r="7.5" style="fill:#c7d9e5"/><circle cx="138.5" cy="68.2" r="7.5" style="fill:#fff;stroke:#4b88e5;stroke-miterlimit:10;stroke-width:5px"/><circle cx="162.5" cy="68.2" r="7.5" style="fill:#fff;stroke:#4b88e5;stroke-miterlimit:10;stroke-width:5px"/><line x1="90" y1="87.7" x2="332" y2="87.7" style="fill:none;stroke:#4b88e5;stroke-miterlimit:10;stroke-width:5px"/><line x1="168" y1="87.7" x2="168" y2="210.7" style="fill:none;stroke:#4b88e5;stroke-miterlimit:10;stroke-width:5px"/><line x1="113.5" y1="115.7" x2="147.5" y2="115.7" style="fill:none;stroke:#c8d2fc;stroke-miterlimit:10;stroke-width:3px"/><line x1="113.5" y1="123.7" x2="147.5" y2="123.7" style="fill:none;stroke:#c8d2fc;stroke-miterlimit:10;stroke-width:3px"/><line x1="113.5" y1="131.7" x2="147.5" y2="131.7" style="fill:none;stroke:#c8d2fc;stroke-miterlimit:10;stroke-width:3px"/><line x1="113.5" y1="139.7" x2="147.5" y2="139.7" style="fill:none;stroke:#c8d2fc;stroke-miterlimit:10;stroke-width:3px"/><line x1="113.5" y1="147.7" x2="147.5" y2="147.7" style="fill:none;stroke:#c8d2fc;stroke-miterlimit:10;stroke-width:3px"/><line x1="113.5" y1="155.7" x2="147.5" y2="155.7" style="fill:none;stroke:#c8d2fc;stroke-miterlimit:10;stroke-width:3px"/><line x1="113.5" y1="163.7" x2="147.5" y2="163.7" style="fill:none;stroke:#c8d2fc;stroke-miterlimit:10;stroke-width:3px"/><line x1="113.5" y1="171.7" x2="147.5" y2="171.7" style="fill:none;stroke:#c8d2fc;stroke-miterlimit:10;stroke-width:3px"/><line x1="113.5" y1="179.7" x2="147.5" y2="179.7" style="fill:none;stroke:#c8d2fc;stroke-miterlimit:10;stroke-width:3px"/><line x1="244.5" y1="115.7" x2="300.5" y2="115.7" style="fill:none;stroke:#c8d2fc;stroke-miterlimit:10;stroke-width:3px"/><line x1="244.5" y1="123.7" x2="300.5" y2="123.7" style="fill:none;stroke:#c8d2fc;stroke-miterlimit:10;stroke-width:3px"/><line x1="244.5" y1="131.7" x2="300.5" y2="131.7" style="fill:none;stroke:#c8d2fc;stroke-miterlimit:10;stroke-width:3px"/><line x1="244.5" y1="139.7" x2="300.5" y2="139.7" style="fill:none;stroke:#c8d2fc;stroke-miterlimit:10;stroke-width:3px"/><line x1="244.5" y1="147.7" x2="300.5" y2="147.7" style="fill:none;stroke:#c8d2fc;stroke-miterlimit:10;stroke-width:3px"/><line x1="197.5" y1="155.7" x2="300.5" y2="155.7" style="fill:none;stroke:#c8d2fc;stroke-miterlimit:10;stroke-width:3px"/><line x1="197.5" y1="163.7" x2="300.5" y2="163.7" style="fill:none;stroke:#c8d2fc;stroke-miterlimit:10;stroke-width:3px"/><line x1="197.5" y1="171.7" x2="300.5" y2="171.7" style="fill:none;stroke:#c8d2fc;stroke-miterlimit:10;stroke-width:3px"/><line x1="197.5" y1="179.7" x2="300.5" y2="179.7" style="fill:none;stroke:#c8d2fc;stroke-miterlimit:10;stroke-width:3px"/><path d="M247.8,190.5H218.3a4.8,4.8,0,0,1-4.8-4.8V163.2a4.8,4.8,0,0,1,4.8-4.8h29.5a4.8,4.8,0,0,1,4.8,4.8v22.5A4.87,4.87,0,0,1,247.8,190.5Z" transform="translate(-15.5 -42.8)" style="fill:none;stroke:#c8d2fc;stroke-miterlimit:10;stroke-width:3px"/><path d="M31,256.3H18a2.48,2.48,0,0,1-2.5-2.5h0a2.48,2.48,0,0,1,2.5-2.5H31a2.48,2.48,0,0,1,2.5,2.5h0A2.48,2.48,0,0,1,31,256.3Z" transform="translate(-15.5 -42.8)" style="fill:#c7d9e5"/><path d="M76,256.3H41a2.48,2.48,0,0,1-2.5-2.5h0a2.48,2.48,0,0,1,2.5-2.5H76a2.48,2.48,0,0,1,2.5,2.5h0A2.48,2.48,0,0,1,76,256.3Z" transform="translate(-15.5 -42.8)" style="fill:#c7d9e5"/><path d="M385.5,185h-13a2.48,2.48,0,0,1-2.5-2.5h0a2.48,2.48,0,0,1,2.5-2.5h13a2.48,2.48,0,0,1,2.5,2.5h0A2.48,2.48,0,0,1,385.5,185Z" transform="translate(-15.5 -42.8)" style="fill:#c7d9e5"/><path d="M430.5,185h-35a2.48,2.48,0,0,1-2.5-2.5h0a2.48,2.48,0,0,1,2.5-2.5h35a2.48,2.48,0,0,1,2.5,2.5h0A2.48,2.48,0,0,1,430.5,185Z" transform="translate(-15.5 -42.8)" style="fill:#c7d9e5"/></svg>