<svg xmlns="http://www.w3.org/2000/svg" viewBox="0 0 388 279.9"><title>corporate-support</title><circle cx="191" cy="150.9" r="129" style="fill:#f0f5f9"/><circle cx="7.5" cy="262.5" r="7.5" style="fill:#c7d9e5"/><circle cx="343.5" cy="35.5" r="7.5" style="fill:#c7d9e5"/><path d="M63.5,75h-13A2.48,2.48,0,0,1,48,72.5h0A2.48,2.48,0,0,1,50.5,70h13A2.48,2.48,0,0,1,66,72.5h0A2.48,2.48,0,0,1,63.5,75Z" transform="translate(-45 -19)" style="fill:#c7d9e5"/><path d="M108.5,75h-35A2.48,2.48,0,0,1,71,72.5h0A2.48,2.48,0,0,1,73.5,70h35a2.48,2.48,0,0,1,2.5,2.5h0A2.48,2.48,0,0,1,108.5,75Z" transform="translate(-45 -19)" style="fill:#c7d9e5"/><path d="M385.5,293h-13a2.48,2.48,0,0,1-2.5-2.5h0a2.48,2.48,0,0,1,2.5-2.5h13a2.48,2.48,0,0,1,2.5,2.5h0A2.48,2.48,0,0,1,385.5,293Z" transform="translate(-45 -19)" style="fill:#c7d9e5"/><path d="M430.5,293h-35a2.48,2.48,0,0,1-2.5-2.5h0a2.48,2.48,0,0,1,2.5-2.5h35a2.48,2.48,0,0,1,2.5,2.5h0A2.48,2.48,0,0,1,430.5,293Z" transform="translate(-45 -19)" style="fill:#c7d9e5"/><path d="M197.5,91.3a18.83,18.83,0,0,1,6.2,1.1,3,3,0,0,0,3.5-1,29,29,0,0,1,46.2,0,3,3,0,0,0,3.5,1,16.57,16.57,0,0,1,6.2-1.1,17.51,17.51,0,0,1,17.2,14.4H180.5a17.14,17.14,0,0,1,17-14.4ZM327,189.8a23.9,23.9,0,0,1-23.9,23.9H287.6a3,3,0,0,0-3,3v16.4a2.91,2.91,0,0,0,2,2.8,10.25,10.25,0,0,1-3.4,19.9h-106A10.18,10.18,0,0,1,167,245.6a10.35,10.35,0,0,1,6.8-9.7,3,3,0,0,0,2-2.8V111.7H284.6v13.4a3,3,0,0,0,3,3h15.5A23.9,23.9,0,0,1,327,152v37.8Z" transform="translate(-45 -19)" style="fill:#fff"/><path d="M303.1,138.2H290.6v-1a3,3,0,1,0-6,0v67.6a3,3,0,0,0,6,0v-1h12.5A13.87,13.87,0,0,0,317,189.9V152a13.85,13.85,0,0,0-13.9-13.8Zm7.9,51.6a7.85,7.85,0,0,1-7.9,7.9H290.6V144.1h12.5A7.85,7.85,0,0,1,311,152Z" transform="translate(-45 -19)" style="fill:#4b88e5"/><path d="M303.1,122.2H290.6V108.8a3,3,0,0,0-3-3h-1.4A23.43,23.43,0,0,0,263,85.4a25.7,25.7,0,0,0-6.2.8,34.88,34.88,0,0,0-53,0,21.54,21.54,0,0,0-6.2-.8,23.35,23.35,0,0,0-23.2,20.4H173a3,3,0,0,0-3,3V231.2a16.38,16.38,0,0,0-8.8,14.4,16.2,16.2,0,0,0,16.2,16.2H283.3a16.19,16.19,0,0,0,7.4-30.6V219.8h12.5a29.92,29.92,0,0,0,29.9-29.9V152A30,30,0,0,0,303.1,122.2ZM197.5,91.3a18.83,18.83,0,0,1,6.2,1.1,3,3,0,0,0,3.5-1,29,29,0,0,1,46.2,0,3,3,0,0,0,3.5,1,16.57,16.57,0,0,1,6.2-1.1,17.51,17.51,0,0,1,17.2,14.4H180.5a17.14,17.14,0,0,1,17-14.4ZM327,189.8a23.9,23.9,0,0,1-23.9,23.9H287.6a3,3,0,0,0-3,3v16.4a2.91,2.91,0,0,0,2,2.8,10.25,10.25,0,0,1-3.4,19.9h-106A10.18,10.18,0,0,1,167,245.6a10.35,10.35,0,0,1,6.8-9.7,3,3,0,0,0,2-2.8V111.7H284.6v13.4a3,3,0,0,0,3,3h15.5A23.9,23.9,0,0,1,327,152v37.8Z" transform="translate(-45 -19)" style="fill:#4b88e5"/><path d="M239.6,230.1H196.8a9,9,0,0,1-9-9v-44a3,3,0,0,0-6,0v44a15,15,0,0,0,15,15h42.8a3,3,0,0,0,3-3A3,3,0,0,0,239.6,230.1Z" transform="translate(-45 -19)" style="fill:#c8d2fc"/><circle cx="215.6" cy="169.7" r="3" style="fill:#c8d2fc"/><circle cx="215.6" cy="181.7" r="3" style="fill:#c8d2fc"/><path d="M275.6,117.7a3,3,0,0,0-3,3v29.4H187.8V120.7a3,3,0,0,0-6,0v44.4a3,3,0,0,0,6,0v-9h84.8v65a9,9,0,0,1-9,9h-12a3,3,0,1,0,0,6h12a15,15,0,0,0,15-15V120.7A3.08,3.08,0,0,0,275.6,117.7Z" transform="translate(-45 -19)" style="fill:#c8d2fc"/><circle cx="141" cy="32" r="6" style="fill:#fff;stroke:#8d9be2;stroke-miterlimit:10;stroke-width:2px"/><circle cx="221" cy="41" r="4" style="fill:#fff;stroke:#8d9be2;stroke-miterlimit:10;stroke-width:2px"/><circle cx="219" cy="12" r="8" style="fill:#fff;stroke:#8d9be2;stroke-miterlimit:10;stroke-width:2px"/><circle cx="173.5" cy="3.5" r="2.5" style="fill:#fff;stroke:#8d9be2;stroke-miterlimit:10;stroke-width:2px"/><circle cx="180.5" cy="42.5" r="2.5" style="fill:#fff;stroke:#8d9be2;stroke-miterlimit:10;stroke-width:2px"/><circle cx="164" cy="52" r="3" style="fill:#fff;stroke:#8d9be2;stroke-miterlimit:10;stroke-width:2px"/><circle cx="192" cy="17" r="4" style="fill:#fff;stroke:#8d9be2;stroke-miterlimit:10;stroke-width:2px"/><circle cx="205.5" cy="53.5" r="2.5" style="fill:#fff;stroke:#8d9be2;stroke-miterlimit:10;stroke-width:2px"/></svg>