<svg xmlns="http://www.w3.org/2000/svg" viewBox="0 0 345 283"><title>corporate-tools</title><circle cx="188" cy="153.9" r="129" style="fill:#f0f5f9"/><circle cx="42.5" cy="216.5" r="7.5" style="fill:#c7d9e5"/><circle cx="234.5" cy="7.5" r="7.5" style="fill:#c7d9e5"/><path d="M63.5,117h-13a2.48,2.48,0,0,1-2.5-2.5h0a2.48,2.48,0,0,1,2.5-2.5h13a2.48,2.48,0,0,1,2.5,2.5h0A2.48,2.48,0,0,1,63.5,117Z" transform="translate(-48 -16)" style="fill:#c7d9e5"/><path d="M108.5,117h-35a2.48,2.48,0,0,1-2.5-2.5h0a2.48,2.48,0,0,1,2.5-2.5h35a2.48,2.48,0,0,1,2.5,2.5h0A2.48,2.48,0,0,1,108.5,117Z" transform="translate(-48 -16)" style="fill:#c7d9e5"/><path d="M345.5,299h-13a2.48,2.48,0,0,1-2.5-2.5h0a2.48,2.48,0,0,1,2.5-2.5h13a2.48,2.48,0,0,1,2.5,2.5h0A2.48,2.48,0,0,1,345.5,299Z" transform="translate(-48 -16)" style="fill:#c7d9e5"/><path d="M390.5,299h-35a2.48,2.48,0,0,1-2.5-2.5h0a2.48,2.48,0,0,1,2.5-2.5h35a2.48,2.48,0,0,1,2.5,2.5h0A2.48,2.48,0,0,1,390.5,299Z" transform="translate(-48 -16)" style="fill:#c7d9e5"/><path d="M368.2,84,367,80.5a7.24,7.24,0,0,0-7-5h-9.9v-5a5,5,0,0,0-5-5h-4.7a5,5,0,0,0-5,5v5h-.7l-27.6,4.2a460.7,460.7,0,0,1-58.3,5.2l-9.7.2c-2.2,0-4.2.2-6.2.2h-.7a84.55,84.55,0,0,0-60.5,139.3l-13,3.4a5.41,5.41,0,0,0-3.5,3.7l-.5,2.7a27.41,27.41,0,0,0,6.2,23.6l1.7,2a4.5,4.5,0,0,0,3.7,1.7,2.54,2.54,0,0,0,1.2-.2l41.7-11.2a4.87,4.87,0,0,0,.7-.3,83.47,83.47,0,0,0,25.9,4c2,0,4,0,6-.2,40.2-2.7,76-39,78.5-79a84,84,0,0,0-6.3-37.2l20.7,4.7h.7v5a5,5,0,0,0,5,5h4.7a5,5,0,0,0,5-5v-5.2H360a7.78,7.78,0,0,0,7.2-5l.7-2.5A73.93,73.93,0,0,0,368.2,84Z" transform="translate(-48 -16)" style="fill:#fff"/><path d="M166.4,256.1l-1.7-2a22,22,0,0,1-5.2-19.4l.5-2.7,15.5-4a38.33,38.33,0,0,0,2.9,2.8,86.26,86.26,0,0,0,24.1,15.7ZM310.6,131.2a365.21,365.21,0,0,0-73-8.9,2.13,2.13,0,0,0-1.2-.3,47,47,0,0,0-31.7,12.2l-3.8-3.8a2.47,2.47,0,0,0-3.5,3.5l3.8,3.8a46.74,46.74,0,0,0-11.9,28.7h-5.5a2.5,2.5,0,0,0,0,5h5.5A46.29,46.29,0,0,0,201,200.3l-3.6,3.6a2.42,2.42,0,0,0,0,3.5,2.19,2.19,0,0,0,1.7.7,1.84,1.84,0,0,0,1.7-.7l3.5-3.5a47.2,47.2,0,0,0,32,12.5,46.59,46.59,0,0,0,31.4-12l3.1,3.1a2.19,2.19,0,0,0,1.7.7c.7,0,1.5,0,1.7-.7a2.42,2.42,0,0,0,0-3.5l-3-3a47.06,47.06,0,0,0,12.2-29.5h4.5a2.5,2.5,0,0,0,0-5h-4.6a46,46,0,0,0-6.4-21.1,2.57,2.57,0,0,0-4.5,2.5,41.5,41.5,0,0,1,5.9,18.6h-5.4a2.5,2.5,0,0,0,0,5h5.4a41.55,41.55,0,0,1-10.8,25.9l-3.8-3.8a2.47,2.47,0,0,0-3.5,3.5l3.8,3.8a42.22,42.22,0,0,1-56.4-.4l3.4-3.4a2.47,2.47,0,0,0-3.5-3.5l-3.3,3.3a41.87,41.87,0,0,1-10.3-25.4h4.4a2.5,2.5,0,0,0,0-5h-4.4a42.11,42.11,0,0,1,10.5-25.2l3.1,3.1a2.19,2.19,0,0,0,1.7.7,2.51,2.51,0,0,0,1.7-.7,2.42,2.42,0,0,0,0-3.5l-3.1-3.1A41.84,41.84,0,0,1,235.1,127a3.59,3.59,0,0,0,1.1.2,342.17,342.17,0,0,1,71.4,8.3,79.42,79.42,0,0,1,7.3,38.1c-2.2,37.7-36,72-73.7,74.5a79.44,79.44,0,1,1-9.1-158.6h.7c2.2,0,4.2,0,6.5-.2l9.4-.2a462,462,0,0,0,58.8-5.2l27.6-4.5v57.3Zm34.8,15.4h-5.2v-77h5.2ZM363,132.4l-.7,2.5a2.25,2.25,0,0,1-2.2,1.7h-9.9V79.1h9.7a2.25,2.25,0,0,1,2.2,1.7l1.2,3.5A72.8,72.8,0,0,1,363,132.4ZM368.2,84,367,80.5a7.24,7.24,0,0,0-7-5h-9.9v-5a5,5,0,0,0-5-5h-4.7a5,5,0,0,0-5,5v5h-.7l-27.6,4.2a460.7,460.7,0,0,1-58.3,5.2l-9.7.2c-2.2,0-4.2.2-6.2.2h-.7a84.55,84.55,0,0,0-60.5,139.3l-13,3.4a5.41,5.41,0,0,0-3.5,3.7l-.5,2.7a27.41,27.41,0,0,0,6.2,23.6l1.7,2a4.5,4.5,0,0,0,3.7,1.7,2.54,2.54,0,0,0,1.2-.2l41.7-11.2a4.87,4.87,0,0,0,.7-.3,83.47,83.47,0,0,0,25.9,4c2,0,4,0,6-.2,40.2-2.7,76-39,78.5-79a84,84,0,0,0-6.3-37.2l20.7,4.7h.7v5a5,5,0,0,0,5,5h4.7a5,5,0,0,0,5-5v-5.2H360a7.78,7.78,0,0,0,7.2-5l.7-2.5A73.93,73.93,0,0,0,368.2,84Z" transform="translate(-48 -16)" style="fill:#4b88e5"/><path d="M235.9,136.7A32.3,32.3,0,1,0,268.2,169,32.22,32.22,0,0,0,235.9,136.7Zm0,62a29.8,29.8,0,1,1,29.8-29.8A29.87,29.87,0,0,1,235.9,198.7Z" transform="translate(-48 -16)" style="fill:#4b88e5"/><path d="M317.1,88.2l-9.9,1.5a1.35,1.35,0,0,0-1,1.5c0,.5.7,1,1.2,1l10.2-1.5a1.35,1.35,0,0,0,1-1.5A1.5,1.5,0,0,0,317.1,88.2Z" transform="translate(-48 -16)" style="fill:#4b88e5"/><path d="M293,92c-14.4,1.7-29.3,2.7-43.9,3.2l-9.7.2c-2,0-4.2.2-6.2.2H231a1.2,1.2,0,1,0,0,2.4h2.7c2,0,4.2,0,6.2-.2l9.4-.2c14.6-.5,29.5-1.5,44.2-3.2a1.58,1.58,0,0,0,1-1.5A1.66,1.66,0,0,0,293,92Z" transform="translate(-48 -16)" style="fill:#4b88e5"/><path d="M165.4,168.2a1.16,1.16,0,0,0-1.2,1.2,72.3,72.3,0,0,0,72.2,72.2,75.25,75.25,0,0,0,31.3-7,1.25,1.25,0,1,0-1.2-2.2,69.93,69.93,0,0,1-99.8-63.1A1.3,1.3,0,0,0,165.4,168.2Z" transform="translate(-48 -16)" style="fill:#4b88e5"/><path d="M280.6,226.3h.7a101.77,101.77,0,0,0,9.4-9.2,1.2,1.2,0,0,0-1.7-1.7,75.74,75.74,0,0,1-9.2,8.7,1.17,1.17,0,0,0-.2,1.7A3.09,3.09,0,0,0,280.6,226.3Z" transform="translate(-48 -16)" style="fill:#4b88e5"/><path d="M295.8,209.9a1.87,1.87,0,0,0,1-.5,60,60,0,0,0,5-8.4,1.25,1.25,0,0,0-2.2-1.2c-1.5,2.7-3,5.5-4.7,8.2-.5.5-.2,1.2.2,1.7A.84.84,0,0,0,295.8,209.9Z" transform="translate(-48 -16)" style="fill:#4b88e5"/><path d="M268.9,135.2a2.47,2.47,0,0,0-3.5,3.5l2.2,2.2a2.19,2.19,0,0,0,1.7.7c.5,0,1.2-.2,1.7-.2a2.43,2.43,0,0,0,.2-3.5A7.4,7.4,0,0,0,268.9,135.2Z" transform="translate(-48 -16)" style="fill:#4b88e5"/><path d="M245.5,166.4a7.07,7.07,0,0,0-1.1-2.5l10.3-6.6a2.52,2.52,0,0,0-2.8-4.2l-10.4,7a2.65,2.65,0,0,0-.6.5,8.49,8.49,0,0,0-2.6-1.1l2.5-12.3a2.55,2.55,0,1,0-5-1l-2.5,12.4v.8a10.89,10.89,0,0,0-2.5,1l-6.7-10a2.43,2.43,0,0,0-3.5-.7,2.37,2.37,0,0,0-.7,3.5l7,10.4.4.4a12,12,0,0,0-1.1,2.6l-12.3-2.5a2.55,2.55,0,1,0-1,5l12.4,2.5h.8a13.9,13.9,0,0,0,1.2,2.8h0l-10.4,7a2.43,2.43,0,0,0-.7,3.5,3,3,0,0,0,2,1c.5,0,1-.2,1.5-.2l10.4-7a2,2,0,0,0,.8-.8,13.32,13.32,0,0,0,2.4,1l-2.5,12.3a2.62,2.62,0,0,0,2,3h.5a2.46,2.46,0,0,0,2.5-2l2.5-12.4V179a7.07,7.07,0,0,0,2.5-1.1l7.1,10.6a3,3,0,0,0,2,1,3.34,3.34,0,0,0,1.2-.5,2.43,2.43,0,0,0,.7-3.5l-7-10.4a4.35,4.35,0,0,0-.6-.7,7.71,7.71,0,0,0,1-2.5l12.3,2.5h.5a2.46,2.46,0,0,0,2.5-2,2.62,2.62,0,0,0-2-3l-12.4-2.5C246.1,166.4,245.8,166.4,245.5,166.4Zm-9.2,10h-.7a7.33,7.33,0,0,1-7.1-7.1v-.7a7.72,7.72,0,0,1,1.7-4.4h.2a2.59,2.59,0,0,0,1-1.1,7.2,7.2,0,0,1,9.4.3.1.1,0,0,0,.1.1,2.18,2.18,0,0,0,.5.4,7.74,7.74,0,0,1,2,4.7v.7A7.56,7.56,0,0,1,236.3,176.4Z" transform="translate(-48 -16)" style="fill:#4b88e5"/></svg>