<svg xmlns="http://www.w3.org/2000/svg" viewBox="0 0 598.6 257.5"><title>envelope</title><path d="M661.6,116.1H406a41.42,41.42,0,0,0-41.4,41.4V332.2A41.42,41.42,0,0,0,406,373.6H661.5a41.42,41.42,0,0,0,41.4-41.4V157.5A41.33,41.33,0,0,0,661.6,116.1Zm22.5,216a22.53,22.53,0,0,1-22.5,22.5H406a22.53,22.53,0,0,1-22.5-22.5V157.5A22.53,22.53,0,0,1,406,135H661.5A22.53,22.53,0,0,1,684,157.5l.1,174.6Z" transform="translate(-104.3 -116.1)" style="fill:#4b88e5"/><path d="M578,242.6l82.7-74.2A9.49,9.49,0,1,0,648,154.3L534,256.7l-22.3-19.9c-.1-.1-.1-.1-.1-.2a17.38,17.38,0,0,0-1.5-1.3l-90.6-81a9.49,9.49,0,0,0-12.6,14.2l83.7,74.8-83.4,78a9.5,9.5,0,0,0,6.5,16.4,9.24,9.24,0,0,0,6.4-2.5L504.7,256l23,20.5a9.47,9.47,0,0,0,12.6,0l23.6-21.1L648,335.3a9.59,9.59,0,0,0,6.5,2.6,9.78,9.78,0,0,0,6.9-2.9,9.57,9.57,0,0,0-.3-13.4Z" transform="translate(-104.3 -116.1)" style="fill:#4b88e5"/><path d="M313,205H117.7a13.4,13.4,0,0,1-13.4-13.4h0a13.4,13.4,0,0,1,13.4-13.4H313a13.4,13.4,0,0,1,13.4,13.4h0A13.53,13.53,0,0,1,313,205Z" transform="translate(-104.3 -116.1)" style="fill:#4b88e5"/><path d="M313,258.1H154a13.4,13.4,0,0,1-13.4-13.4h0A13.4,13.4,0,0,1,154,231.3H313a13.4,13.4,0,0,1,13.4,13.4h0A13.53,13.53,0,0,1,313,258.1Z" transform="translate(-104.3 -116.1)" style="fill:#4b88e5"/><path d="M313,311.3H190a13.4,13.4,0,0,1-13.4-13.4h0A13.4,13.4,0,0,1,190,284.5H313a13.4,13.4,0,0,1,13.4,13.4h0A13.53,13.53,0,0,1,313,311.3Z" transform="translate(-104.3 -116.1)" style="fill:#4b88e5"/></svg>