<?xml version="1.0" encoding="utf-8"?>
<!-- Generator: Adobe Illustrator 21.0.2, SVG Export Plug-In . SVG Version: 6.00 Build 0)  -->
<svg version="1.1" id="Layer_1" xmlns="http://www.w3.org/2000/svg" xmlns:xlink="http://www.w3.org/1999/xlink" x="0px" y="0px"
	 viewBox="0 0 468 343" style="enable-background:new 0 0 468 343;" xml:space="preserve">
<style type="text/css">
	.st0{fill:#F0F5F9;}
	.st1{fill:#C7D9E5;}
	.st2{fill:none;}
	.st3{fill:#D9F4EF;}
	.st4{fill:#4B88E5;}
</style>
<circle class="st0" cx="236" cy="169.9" r="129"/>
<circle class="st1" cx="69" cy="252.6" r="7.5"/>
<circle class="st1" cx="282.5" cy="23.5" r="7.5"/>
<path class="st1" d="M63.5,117h-13c-1.4,0-2.5-1.1-2.5-2.5l0,0c0-1.4,1.1-2.5,2.5-2.5h13c1.4,0,2.5,1.1,2.5,2.5l0,0
	C66,115.9,64.9,117,63.5,117z"/>
<path class="st1" d="M424.5,166.5h-35c-1.4,0-2.5-1.1-2.5-2.5l0,0c0-1.4,1.1-2.5,2.5-2.5h35c1.4,0,2.5,1.1,2.5,2.5l0,0
	C427,165.4,425.9,166.5,424.5,166.5z"/>
<path class="st1" d="M345.5,299h-13c-1.4,0-2.5-1.1-2.5-2.5l0,0c0-1.4,1.1-2.5,2.5-2.5h13c1.4,0,2.5,1.1,2.5,2.5l0,0
	C348,297.9,346.9,299,345.5,299z"/>
<path class="st1" d="M390.5,299h-35c-1.4,0-2.5-1.1-2.5-2.5l0,0c0-1.4,1.1-2.5,2.5-2.5h35c1.4,0,2.5,1.1,2.5,2.5l0,0
	C393,297.9,391.9,299,390.5,299z"/>
<g id="XMLID_3_">
	<g id="XMLID_1_">
		<path id="XMLID_2_" class="st2" d="M209.1,182.4c-0.6,1.9-1.8,3.5-3.4,4.5c0,0.2,0,0.4,0,0.6c0,3,2.5,5.5,5.5,5.5s5.5-2.5,5.5-5.5
			s-2.5-5.5-5.5-5.5C210.4,181.9,209.7,182.1,209.1,182.4z"/>
		<polygon id="XMLID_70_" class="st2" points="209.6,250.3 209.6,255.1 270.8,255.1 270.8,213 263.5,213 263.5,250.3 		"/>
		<path id="XMLID_71_" class="st2" d="M255.2,80c-0.4-0.4-0.9-0.8-1.3-1.1c0.2,0.4,0.5,0.8,0.7,1.2C254.8,80,255,80,255.2,80z"/>
		<path id="XMLID_72_" class="st2" d="M277.9,100.7c2.3,0.3,4.4,0.9,6.4,1.7c-1.4-4.3-4.3-7.9-8.2-10.2c1.1,2.5,1.7,5.3,1.7,8.3
			C277.9,100.6,277.9,100.7,277.9,100.7z"/>
		<polygon id="XMLID_73_" class="st2" points="122.5,250.3 122.5,255.1 183.7,255.1 183.7,213 176.5,213 176.5,250.3 		"/>
		<path id="XMLID_75_" class="st2" d="M300,146.9c4-4,6.3-9.4,6.3-15.1c0-5.7-2.2-11-6.3-15.1c-1.1-1.1-2.2-2-3.5-2.8
			c1.6,3.2,2.5,6.8,2.5,10.5c0,13.1-10.8,23.9-23.9,23.9h-89.5c-1.4,0-2.7-0.1-4.1-0.4c3.9,3.3,8.8,5.2,13.9,5.2h5.9h29h26.2h28.4
			C290.6,153.2,295.9,151,300,146.9z"/>
		<path id="XMLID_76_" class="st2" d="M271.9,179.4c0-3-2.5-5.5-5.5-5.5c-0.7,0-1.5,0.1-2.1,0.4c-0.6,1.9-1.8,3.5-3.4,4.5
			c0,0.2,0,0.4,0,0.6c0,3,2.5,5.5,5.5,5.5S271.9,182.4,271.9,179.4L271.9,179.4L271.9,179.4z"/>
		<polygon id="XMLID_77_" class="st2" points="352.2,250.3 298.3,250.3 298.3,255.1 359.5,255.1 359.5,213 352.2,213 		"/>
		<path id="XMLID_81_" class="st3" d="M176.3,113.5c4.2-4.3,9.6-7.1,15.4-7.9c0.1-10.5,4.3-20.5,11.7-27.9C211,70.1,221,66,231.7,66
			c3.8,0,7.5,0.5,11.1,1.6c-6-4-13.2-6.4-20.9-6.4c-20.7,0-37.5,16.8-37.5,37.5c0,0.6,0,1.3,0,1.9c-12.7,0.5-22.9,11.1-22.9,23.9
			c0,6.6,2.7,12.6,7,16.9c1,1,2.1,1.9,3.3,2.8c-2-3.7-3-7.9-3-12.3C169,125,171.6,118.5,176.3,113.5z"/>
		<path id="XMLID_82_" class="st3" d="M267.1,84.7c1.3,0,2.6,0.1,3.8,0.3c-2.3-2-5.1-3.5-8.1-4.4c1.1,1.3,2.1,2.7,3,4.1
			C266.2,84.7,266.6,84.7,267.1,84.7z"/>
		<path id="XMLID_83_" class="st3" d="M263.8,169.1v-0.5c-1.3-2.7-4.1-4.6-7.3-4.6c-4.5,0-8.1,3.6-8.1,8.1c0,4.2,3.2,7.6,7.3,8
			c0-0.2,0-0.4,0-0.7C255.8,174.4,259.2,170.3,263.8,169.1z"/>
		<path id="XMLID_84_" class="st3" d="M264.3,174.3c-1.8,0.8-3.2,2.5-3.4,4.5C262.5,177.8,263.7,176.2,264.3,174.3z"/>
		<path id="XMLID_85_" class="st3" d="M209.1,182.4c-1.8,0.8-3.2,2.5-3.4,4.5C207.3,185.8,208.5,184.2,209.1,182.4z"/>
		<path id="XMLID_86_" class="st3" d="M208.6,177.2v-0.5c-1.3-2.7-4.1-4.6-7.3-4.6c-4.5,0-8.1,3.6-8.1,8.1c0,1.8,0.6,3.5,1.6,4.8h6
			C201.8,181.1,204.8,178.1,208.6,177.2z"/>
		<circle id="XMLID_87_" class="st3" cx="240.2" cy="234.1" r="5.5"/>
		<rect id="XMLID_89_" x="242.7" y="203.1" class="st3" width="20.8" height="4.8"/>
		<path id="XMLID_90_" class="st3" d="M207,207.9h30.6v-4.8h-7.3h-33.1v47.2h7.3v-39.9C204.5,209.1,205.6,207.9,207,207.9z"/>
		<circle id="XMLID_91_" class="st3" cx="328.9" cy="234.1" r="5.5"/>
		<path id="XMLID_93_" class="st3" d="M295.7,207.9H319h7.3v-4.8H319h-33.1v47.2h7.3v-39.9C293.2,209.1,294.3,207.9,295.7,207.9z"/>
		<rect id="XMLID_94_" x="331.4" y="203.1" class="st3" width="20.8" height="4.8"/>
		<path id="XMLID_95_" class="st3" d="M120,207.9h23.3h7.3v-4.8h-7.3h-33.1v47.2h7.3v-39.9C117.4,209.1,118.6,207.9,120,207.9z"/>
		<rect id="XMLID_96_" x="155.7" y="203.1" class="st3" width="20.8" height="4.8"/>
		<circle id="XMLID_97_" class="st3" cx="153.1" cy="234.1" r="5.5"/>
		<path id="XMLID_99_" class="st4" d="M211.2,109c1.4,0,2.5-1.1,2.5-2.5c0-10.1,8.2-18.3,18.3-18.3c1.4,0,2.5-1.1,2.5-2.5
			s-1.1-2.5-2.5-2.5c-12.9,0-23.4,10.5-23.4,23.4C208.6,107.8,209.8,109,211.2,109z"/>
		<path id="XMLID_102_" class="st4" d="M362,207.9h-9.8h-20.8v-4.8v-23.7c0-1.4-1.1-2.5-2.5-2.5H319h-42.4c-0.5-1.8-1.4-3.5-2.7-4.8
			c-1.4-1.4-3.1-2.4-5.1-2.9v-10.8h16c14.6,0,26.5-11.9,26.5-26.5c0-7-2.8-13.7-7.8-18.7c-3.7-3.7-8.4-6.2-13.4-7.2
			c-0.9-10.6-9-19.2-19.3-20.9c-1.2-0.2-2.5-0.3-3.8-0.3c-0.5,0-0.9,0-1.3,0c-0.9-1.4-1.9-2.8-3-4.1c-3-3.6-6.5-6.7-10.6-9.1
			c-2.9-1.7-6-3.1-9.3-4c-3.6-1-7.3-1.6-11.1-1.6c-10.7,0-20.7,4.2-28.3,11.7c-7.5,7.5-11.6,17.4-11.7,27.9
			c-5.9,0.8-11.3,3.6-15.4,7.9c-4.8,5-7.4,11.5-7.4,18.3c0,4.3,1,8.5,3,12.3c1.2,2.3,2.8,4.5,4.7,6.4c5,5,11.6,7.8,18.7,7.8h5.9h7.3
			v18.4v0.5c-3.8,0.9-6.8,3.9-7.7,7.7h-6h-41.7c-1.4,0-2.5,1.1-2.5,2.5V203v4.8h-7.3H120c-1.4,0-2.5,1.1-2.5,2.5v39.9v7.4
			c0,1.4,1.1,2.5,2.5,2.5h66.3c1.4,0,2.5-1.1,2.5-2.5v-47.2c0-1.4-1.1-2.5-2.5-2.5h-9.8h-20.8v-4.8V190h45.2
			c1.1,4.6,5.3,8.1,10.3,8.1c5.8,0,10.6-4.8,10.6-10.6c0-5-3.4-9.2-8.1-10.3v-18.9h16.6h7.3v44.8v4.8H207c-1.4,0-2.5,1.1-2.5,2.5
			v39.9v7.4c0,1.4,1.1,2.5,2.5,2.5h66.3c1.4,0,2.5-1.1,2.5-2.5v-47.2c0-1.4-1.1-2.5-2.5-2.5h-9.8h-20.8v-4.8v-44.8h13.9h7.3v10.3
			v0.5c-4.6,1.1-8.1,5.3-8.1,10.3c0,0.2,0,0.4,0,0.7c0.3,5.5,5,9.9,10.6,9.9c5,0,9.1-3.4,10.3-8.1H319h7.3v21.1v4.8H319h-23.3
			c-1.4,0-2.5,1.1-2.5,2.5v39.9v7.4c0,1.4,1.1,2.5,2.5,2.5H362c1.4,0,2.5-1.1,2.5-2.5v-47.2C364.6,209.1,363.4,207.9,362,207.9z
			 M153.1,228.5c3,0,5.5,2.5,5.5,5.5s-2.5,5.5-5.5,5.5s-5.5-2.5-5.5-5.5S150.1,228.5,153.1,228.5z M176.5,213h7.3v42.1h-61.2v-4.8
			V213h20.8h7.3v10.8c-4.6,1.1-8.1,5.3-8.1,10.3c0,5.8,4.8,10.6,10.6,10.6s10.6-4.8,10.6-10.6c0-5-3.4-9.1-8.1-10.3V213H176.5z
			 M216.7,187.5c0,3-2.5,5.5-5.5,5.5s-5.5-2.5-5.5-5.5c0-0.2,0-0.4,0-0.6c0.2-2,1.6-3.8,3.4-4.5c0.6-0.3,1.4-0.4,2.1-0.4
			C214.2,181.9,216.7,184.4,216.7,187.5z M240.2,228.5c3,0,5.5,2.5,5.5,5.5s-2.5,5.5-5.5,5.5s-5.5-2.5-5.5-5.5
			S237.1,228.5,240.2,228.5z M263.5,213h7.3v42.1h-61.2v-4.8V213h28.1v10.8c-4.6,1.1-8.1,5.3-8.1,10.3c0,5.8,4.8,10.6,10.6,10.6
			s10.6-4.8,10.6-10.6c0-5-3.4-9.1-8.1-10.3V213H263.5z M256.6,153.2h-26.2h-29h-5.9c-5.1,0-10-1.8-13.9-5.2
			c-0.4-0.4-0.8-0.7-1.2-1.1c-4-4.1-6.3-9.4-6.3-15.1c0-5.5,2.1-10.8,6-14.8c3.8-4,9-6.3,14.5-6.6c0.7,0,1.3-0.3,1.8-0.8
			s0.7-1.2,0.7-1.8c0-0.6,0-1.2,0-1.8c0-19.3,15.7-34.9,34.9-34.9c6.3,0,12.4,1.7,17.8,4.9c1.5,0.9,2.9,1.9,4.2,3
			c0.4,0.4,0.9,0.7,1.3,1.1c2.8,2.5,5.2,5.4,7,8.7c0.5,0.9,1.5,1.4,2.5,1.3c0.8-0.1,1.6-0.2,2.4-0.2c3.3,0,6.4,0.9,9.1,2.5
			c3.8,2.2,6.8,5.9,8.2,10.2c0.6,1.7,0.8,3.6,0.8,5.5l0,0c-0.1,1.3,0.9,2.5,2.2,2.7c3.2,0.4,6.4,1.5,9.1,3.3
			c1.2,0.8,2.4,1.8,3.5,2.8c4,4,6.3,9.4,6.3,15.1c0,5.7-2.2,11-6.3,15.1c-4,4-9.4,6.3-15.1,6.3h-28.4V153.2z M266.4,184.9
			c-3,0-5.5-2.5-5.5-5.5c0-0.2,0-0.4,0-0.6c0.2-2,1.6-3.8,3.4-4.5c0.6-0.3,1.4-0.4,2.1-0.4c3,0,5.5,2.5,5.5,5.5l0,0l0,0
			C271.9,182.4,269.4,184.9,266.4,184.9z M328.9,228.5c3,0,5.5,2.5,5.5,5.5s-2.5,5.5-5.5,5.5s-5.5-2.5-5.5-5.5
			S325.8,228.5,328.9,228.5z M359.5,255.1h-61.2v-4.8V213H319h7.3v10.8c-4.6,1.1-8.1,5.3-8.1,10.3c0,5.8,4.8,10.6,10.6,10.6
			s10.6-4.8,10.6-10.6c0-5-3.4-9.1-8.1-10.3V213h20.8h7.3v42.1H359.5z"/>
		<path id="XMLID_111_" class="st4" d="M282.3,71.1h18.3c1.4,0,2.5-1.1,2.5-2.5s-1.1-2.5-2.5-2.5h-18.3c-1.4,0-2.5,1.1-2.5,2.5
			C279.8,69.9,280.9,71.1,282.3,71.1z"/>
		<path id="XMLID_112_" class="st4" d="M294.8,75.9c0,1.4,1.1,2.5,2.5,2.5h18.3c1.4,0,2.5-1.1,2.5-2.5s-1.1-2.5-2.5-2.5h-18.3
			C296,73.3,294.8,74.5,294.8,75.9z"/>
		<path id="XMLID_113_" class="st4" d="M125.7,150.9h17.6c1.4,0,2.5-1.1,2.5-2.5s-1.1-2.5-2.5-2.5h-17.6c-1.4,0-2.5,1.1-2.5,2.5
			S124.3,150.9,125.7,150.9z"/>
		<path id="XMLID_114_" class="st4" d="M137.5,155.7c0,1.4,1.1,2.5,2.5,2.5h11.3c1.4,0,2.5-1.1,2.5-2.5s-1.1-2.5-2.5-2.5H140
			C138.7,153.2,137.5,154.3,137.5,155.7z"/>
		<path id="XMLID_115_" class="st4" d="M332.9,137.3h8.1c1.4,0,2.5-1.1,2.5-2.5s-1.1-2.5-2.5-2.5h-8.1c-1.4,0-2.5,1.1-2.5,2.5
			S331.5,137.3,332.9,137.3z"/>
		<path id="XMLID_116_" class="st4" d="M164.3,63.7h8.1c1.4,0,2.5-1.1,2.5-2.5s-1.1-2.5-2.5-2.5h-8.1c-1.4,0-2.5,1.1-2.5,2.5
			C161.7,62.5,162.9,63.7,164.3,63.7z"/>
	</g>
</g>
</svg>
