<?xml version="1.0" encoding="utf-8"?>
<!-- Generator: Adobe Illustrator 21.0.2, SVG Export Plug-In . SVG Version: 6.00 Build 0)  -->
<svg version="1.1" id="Layer_1" xmlns="http://www.w3.org/2000/svg" xmlns:xlink="http://www.w3.org/1999/xlink" x="0px" y="0px"
	 viewBox="0 0 468 343" style="enable-background:new 0 0 468 343;" xml:space="preserve">
<style type="text/css">
	.st0{fill:#F0F5F9;}
	.st1{fill:#C7D9E5;}
	.st2{fill:#FFFFFF;stroke:#8D9BE2;stroke-width:2;stroke-miterlimit:10;}
	.st3{fill:none;stroke:#4B88E5;stroke-width:9;stroke-miterlimit:10;}
	.st4{fill:#4B88E5;}
</style>
<circle class="st0" cx="236.5" cy="169.9" r="129"/>
<circle class="st1" cx="52.5" cy="281.5" r="7.5"/>
<circle class="st1" cx="388.5" cy="54.5" r="7.5"/>
<path class="st1" d="M63.5,75h-13c-1.4,0-2.5-1.1-2.5-2.5l0,0c0-1.4,1.1-2.5,2.5-2.5h13c1.4,0,2.5,1.1,2.5,2.5l0,0
	C66,73.9,64.9,75,63.5,75z"/>
<path class="st1" d="M108.5,75h-35c-1.4,0-2.5-1.1-2.5-2.5l0,0c0-1.4,1.1-2.5,2.5-2.5h35c1.4,0,2.5,1.1,2.5,2.5l0,0
	C111,73.9,109.9,75,108.5,75z"/>
<path class="st1" d="M385.5,293h-13c-1.4,0-2.5-1.1-2.5-2.5l0,0c0-1.4,1.1-2.5,2.5-2.5h13c1.4,0,2.5,1.1,2.5,2.5l0,0
	C388,291.9,386.9,293,385.5,293z"/>
<path class="st1" d="M430.5,293h-35c-1.4,0-2.5-1.1-2.5-2.5l0,0c0-1.4,1.1-2.5,2.5-2.5h35c1.4,0,2.5,1.1,2.5,2.5l0,0
	C433,291.9,431.9,293,430.5,293z"/>
<circle class="st2" cx="218.5" cy="22.5" r="2.5"/>
<g>
	<path class="st3" d="M244,128.1c0,0-35.8-42.3-80.9-12.7c0,0-47.4,30.1-2.1,82.5c46.2,53.4,70.6,61.9,75.7,61.7
		c5.2-0.2,13.1-3.3,11-13.1c0,0,7.6,5.3,14.5,1.8c5.9-3,8.7-7.2,7.7-11.8c0,0,4.9,0.5,7.5-0.5c2.6-0.9,10.8-4.9,10.1-13.6
		c0,0,10.1,2.1,16.6-7.5c0,0,2.8-8.4-5.2-11.7C291.2,199.8,258.1,177.1,244,128.1z"/>
	<path class="st4" d="M253.1,151.4c0,0-6.9-1.3-10.2,1.6c-3.3,2.8-16.4,22.5-37.4,18.5c0,0-13.2-5.4,1.4-17.5c0,0,8.6-3.9,16.4-16.1
		c7.9-12.2,20.4-11.8,25.8-15.7c5.4-3.9,32.1-29.7,65.5-9.4c36.9,22.5,26.4,74.3-12.1,93.3C302.6,206.2,268.7,187.1,253.1,151.4z"/>
	<path class="st3" d="M288.4,222.4c0,0-37-23.1-46.6-44.1"/>
	<path class="st3" d="M271.2,236.9c0,0-30.2-17.8-47.5-45.6"/>
	<path class="st3" d="M248.1,247.1c0,0-29.9-21.9-42.2-41.9"/>
	<path class="st4" d="M190.7,197.1c3.3,4.1,2.8,10.1-1.2,13.3l-11.2,9c-4,3.2-9.9,2.5-13.2-1.7l-2.1-2.6c-3.3-4.1-2.8-10.1,1.2-13.3
		l11.2-9c4-3.2,9.9-2.5,13.2,1.7L190.7,197.1z"/>
	<path class="st4" d="M205.1,214.8c3.2,4,2.9,9.6-0.8,12.5l-10.2,8.2c-3.6,2.9-9.2,2.1-12.4-1.9l-2-2.5c-3.2-4-2.9-9.6,0.8-12.5
		l10.2-8.2c3.6-2.9,9.2-2.1,12.4,1.9L205.1,214.8z"/>
	<path class="st4" d="M230.2,244.3c3,3.1,3.2,7.8,0.5,10.5l-4.9,4.8c-2.8,2.7-7.5,2.4-10.5-0.7l-1.5-1.5c-3-3.1-3.2-7.8-0.5-10.5
		l4.9-4.8c2.8-2.7,7.5-2.4,10.5,0.7L230.2,244.3z"/>
	<path class="st4" d="M217.2,231.1c3.1,3.5,3,8.8-0.4,11.8l-5.9,5.3c-3.4,3.1-8.7,2.7-11.8-0.8l-1.5-1.7c-3.1-3.5-3-8.8,0.4-11.8
		l5.9-5.3c3.4-3.1,8.7-2.7,11.8,0.8L217.2,231.1z"/>
</g>
</svg>
