<?xml version="1.0" encoding="utf-8"?>
<!-- Generator: Adobe Illustrator 21.0.2, SVG Export Plug-In . SVG Version: 6.00 Build 0)  -->
<svg version="1.1" id="Layer_1" xmlns="http://www.w3.org/2000/svg" xmlns:xlink="http://www.w3.org/1999/xlink" x="0px" y="0px"
	 viewBox="0 0 468 343" style="enable-background:new 0 0 468 343;" xml:space="preserve">
<style type="text/css">
	.st0{fill:#F0F5F9;}
	.st1{fill:#FFFFFF;stroke:#4B88E5;stroke-width:5;stroke-miterlimit:10;}
	.st2{fill:#C7D9E5;}
	.st3{fill:none;stroke:#4B88E5;stroke-width:5;stroke-miterlimit:10;}
	.st4{fill:none;stroke:#C8D2FC;stroke-width:3;stroke-miterlimit:10;}
</style>
<circle class="st0" cx="227" cy="171.8" r="129"/>
<path class="st1" d="M339.5,253.8h-225c-4.9,0-9-4.1-9-9v-146c0-4.9,4.1-9,9-9h225c5,0,9,4.1,9,9v146
	C348.5,249.7,344.5,253.8,339.5,253.8z"/>
<circle class="st1" cx="130" cy="111" r="7.5"/>
<circle class="st2" cx="71" cy="99.5" r="7.5"/>
<circle class="st2" cx="425.5" cy="278" r="7.5"/>
<circle class="st1" cx="154" cy="111" r="7.5"/>
<circle class="st1" cx="178" cy="111" r="7.5"/>
<line class="st3" x1="105.5" y1="130.5" x2="347.5" y2="130.5"/>
<line class="st3" x1="183.5" y1="130.5" x2="183.5" y2="253.5"/>
<line class="st4" x1="129" y1="158.5" x2="163" y2="158.5"/>
<line class="st4" x1="129" y1="166.5" x2="163" y2="166.5"/>
<line class="st4" x1="129" y1="174.5" x2="163" y2="174.5"/>
<line class="st4" x1="129" y1="182.5" x2="163" y2="182.5"/>
<line class="st4" x1="129" y1="190.5" x2="163" y2="190.5"/>
<line class="st4" x1="129" y1="198.5" x2="163" y2="198.5"/>
<line class="st4" x1="129" y1="206.5" x2="163" y2="206.5"/>
<line class="st4" x1="129" y1="214.5" x2="163" y2="214.5"/>
<line class="st4" x1="129" y1="222.5" x2="163" y2="222.5"/>
<line class="st4" x1="260" y1="158.5" x2="316" y2="158.5"/>
<line class="st4" x1="260" y1="166.5" x2="316" y2="166.5"/>
<line class="st4" x1="260" y1="174.5" x2="316" y2="174.5"/>
<line class="st4" x1="260" y1="182.5" x2="316" y2="182.5"/>
<line class="st4" x1="260" y1="190.5" x2="316" y2="190.5"/>
<line class="st4" x1="213" y1="198.5" x2="316" y2="198.5"/>
<line class="st4" x1="213" y1="206.5" x2="316" y2="206.5"/>
<line class="st4" x1="213" y1="214.5" x2="316" y2="214.5"/>
<line class="st4" x1="213" y1="222.5" x2="316" y2="222.5"/>
<path class="st4" d="M247.8,190.5h-29.5c-2.6,0-4.8-2.1-4.8-4.8v-22.5c0-2.6,2.1-4.8,4.8-4.8h29.5c2.6,0,4.8,2.1,4.8,4.8v22.5
	C252.5,188.4,250.4,190.5,247.8,190.5z"/>
<path class="st2" d="M31,256.3H18c-1.4,0-2.5-1.1-2.5-2.5l0,0c0-1.4,1.1-2.5,2.5-2.5h13c1.4,0,2.5,1.1,2.5,2.5l0,0
	C33.5,255.2,32.4,256.3,31,256.3z"/>
<path class="st2" d="M76,256.3H41c-1.4,0-2.5-1.1-2.5-2.5l0,0c0-1.4,1.1-2.5,2.5-2.5h35c1.4,0,2.5,1.1,2.5,2.5l0,0
	C78.5,255.2,77.4,256.3,76,256.3z"/>
<path class="st2" d="M385.5,185h-13c-1.4,0-2.5-1.1-2.5-2.5l0,0c0-1.4,1.1-2.5,2.5-2.5h13c1.4,0,2.5,1.1,2.5,2.5l0,0
	C388,183.9,386.9,185,385.5,185z"/>
<path class="st2" d="M430.5,185h-35c-1.4,0-2.5-1.1-2.5-2.5l0,0c0-1.4,1.1-2.5,2.5-2.5h35c1.4,0,2.5,1.1,2.5,2.5l0,0
	C433,183.9,431.9,185,430.5,185z"/>
</svg>
