<svg xmlns="http://www.w3.org/2000/svg" viewBox="0 0 333.21 54.7"><title>logo-white</title><path d="M194,6.3c-1.3-2.1-2.5-4.3-3.8-6.3H178c3.1,5.3,6.3,10.6,9.7,15.8Z" transform="translate(0.01)" style="fill:#fff"/><path d="M217.8.1,198.7,34V54.7h10.5V34c1.4-2.4,3-5.1,4.9-8l5.6-9,5.6-9c1.8-2.9,3.4-5.6,4.8-7.8Z" transform="translate(0.01)" style="fill:#fff"/><path d="M213,.1q-2.1,3.45-4.8,7.8l-5.6,9-5.6,9c-1.8,3-3.5,5.6-4.9,8V54.6H181.6V34c-3.2-5.7-6.7-11.3-10.3-17S164.2,5.7,160.9,0h12.2c2.2,3.7,4.5,7.6,6.9,11.6s4.6,7.8,6.9,11.6c1.1-1.7,2.2-3.6,3.4-5.6l3.6-6,3.5-6L200.7,0Z" transform="translate(0.01)" style="fill:#fff"/><path d="M104.3,0a19.81,19.81,0,0,1,7.6,1.5,19.24,19.24,0,0,1,10.3,10.3,19.81,19.81,0,0,1,1.5,7.6,21.14,21.14,0,0,1-1.3,7.5,17.55,17.55,0,0,1-4,6,17.24,17.24,0,0,1-6.6,4,29.06,29.06,0,0,1-9.2,1.5H90.3V54.7H79.9V0Zm0,29a9.24,9.24,0,0,0,4-.8,7.82,7.82,0,0,0,4.4-5.2,14.87,14.87,0,0,0,.5-3.6,9.37,9.37,0,0,0-.7-3.7,9.7,9.7,0,0,0-9.4-6.5H90.3V29Z" transform="translate(0.01)" style="fill:#fff"/><path d="M117.3,54.7,145.2.1h1l27.9,54.6H162.8l-4.3-8.6H132.7l-4.2,8.6ZM137.9,37h15.6l-7.8-16.5Z" transform="translate(0.01)" style="fill:#fff"/><path d="M243.8,9.3V23h26.4v9.5H243.8V45.3h29.8v9.4H233.4V0h40.3V9.3Z" transform="translate(0.01)" style="fill:#fff"/><path d="M299.4,27.6,278.7.1h13.1L306,19.7,320.2.1h13L312.5,27.7l20.3,27H319.7L306,35.7l-13.7,19H279.2Z" transform="translate(0.01)" style="fill:#fff"/><path d="M15.4,27.7,31.5,52.4a3,3,0,0,0,2.3,1.3H50.9a2.8,2.8,0,0,0,2.8-2.8,3,3,0,0,0-.5-1.6L35.3,24.6a2.79,2.79,0,0,0-2.2-1.1H17.7a2.8,2.8,0,0,0-2.8,2.8A4.76,4.76,0,0,0,15.4,27.7Z" transform="translate(0.01)" style="fill:#fff"/><path d="M49.1,2.7h0C63.3,4.6,64.2,17,64.1,21.4v.5a19.94,19.94,0,0,1-5.3,13.5A8.52,8.52,0,0,1,57.1,37c-.9.7-1.8,1.4-2.7,2a2.25,2.25,0,0,1-3-.7l-13.1-18a2.28,2.28,0,0,0-1.9-1H10.1a2.14,2.14,0,0,1-1.9-1.1L.3,6.1A2.48,2.48,0,0,1,1,2.9a2.84,2.84,0,0,1,1.3-.4Z" transform="translate(0.01)" style="fill:#fff"/></svg>