<svg opacity="0.05" xmlns="http://www.w3.org/2000/svg" viewBox="0 0 64.11 51.2"><title>logo-white-mini</title><path d="M15.4,27.7,31.5,52.4a3,3,0,0,0,2.3,1.3H50.9a2.8,2.8,0,0,0,2.8-2.8,3,3,0,0,0-.5-1.6L35.3,24.6a2.79,2.79,0,0,0-2.2-1.1H17.7a2.8,2.8,0,0,0-2.8,2.8A4.76,4.76,0,0,0,15.4,27.7Z" transform="translate(0.01 -2.5)" style="fill:#fff"/><path d="M49.1,2.7h0C63.3,4.6,64.2,17,64.1,21.4v.5a19.94,19.94,0,0,1-5.3,13.5A8.52,8.52,0,0,1,57.1,37c-.9.7-1.8,1.4-2.7,2a2.25,2.25,0,0,1-3-.7l-13.1-18a2.28,2.28,0,0,0-1.9-1H10.1a2.14,2.14,0,0,1-1.9-1.1L.3,6.1A2.48,2.48,0,0,1,1,2.9a2.84,2.84,0,0,1,1.3-.4Z" transform="translate(0.01 -2.5)" style="fill:#fff"/></svg>