<svg xmlns="http://www.w3.org/2000/svg" viewBox="0 0 512.1 478.22"><title>message</title><path d="M511.6,197.6a7.51,7.51,0,0,0-.5-2.6,12.66,12.66,0,0,0-5.2-7.3l-73.3-50.9V82.2a13.14,13.14,0,0,0-13.1-13.1H335.2L263.5,19.2a13.1,13.1,0,0,0-14.9,0L176.4,69h-84A13.14,13.14,0,0,0,79.3,82.1v54L5.7,187A12.92,12.92,0,0,0,.1,197.6v.2L.5,482a13.14,13.14,0,0,0,13.2,13.1h0l485.4-.7a13.14,13.14,0,0,0,13.1-13.1Zm-78.9-28.9,41.9,29.1L432.7,227ZM256,45.9,289.3,69H222.5ZM105.5,95.3H406.4V245.2l-101,70.2-41.2-32c-.1,0-.1-.1-.2-.1a13.06,13.06,0,0,0-15.9.1l-41.5,32.2L105.5,245.7V95.3ZM79.3,168v59.6L36.2,197.8Zm-53,54.9L185,332.6,26.6,455.3Zm25.6,246L256.2,310.4,459.8,468.3ZM327.1,332.3l158.3-110,.3,233.1Z" transform="translate(-0.1 -16.87)" style="fill:#4b88e5"/><path d="M344.8,147.7H167.2a13.1,13.1,0,0,0,0,26.2H344.7a13.1,13.1,0,0,0,.1-26.2Z" transform="translate(-0.1 -16.87)" style="fill:#4b88e5"/><path d="M344.8,215.9H167.2a13.1,13.1,0,1,0,0,26.2H344.7a13.1,13.1,0,0,0,.1-26.2Z" transform="translate(-0.1 -16.87)" style="fill:#4b88e5"/></svg>